<svg width="653" height="829" viewBox="0 0 653 829" fill="none" xmlns="http://www.w3.org/2000/svg">
<rect y="15" width="630" height="814" rx="250" fill="black"/>
<path fill-rule="evenodd" clip-rule="evenodd" d="M164.134 85.4062L147.134 85.4062L147.134 752.406L164.134 752.406L164.134 85.4062ZM147.134 60.4062L122.134 60.4062L122.134 85.4062L122.134 752.406L122.134 777.406L147.134 777.406L164.134 777.406L189.134 777.406L189.134 752.406L189.134 85.4062L189.134 60.4062L164.134 60.4062L147.134 60.4062ZM337.634 451.36C456.9 451.36 548.134 366.609 548.134 268.383C548.134 170.157 456.9 85.4062 337.634 85.4062C218.368 85.4062 127.134 170.157 127.134 268.383C127.134 366.609 218.368 451.36 337.634 451.36ZM337.634 476.36C467.697 476.36 573.134 383.246 573.134 268.383C573.134 153.521 467.697 60.4062 337.634 60.4062C207.571 60.4062 102.134 153.521 102.134 268.383C102.134 383.246 207.571 476.36 337.634 476.36Z" fill="white"/>
<path d="M416.374 520.754L392.881 524.242L393.869 512.473C402.936 511.127 412.118 508.5 421.415 504.594C430.711 500.687 441.347 493.802 453.324 483.94L446.197 673.985L410.587 679.271L416.374 520.754Z" fill="white"/>
<path d="M416.374 520.754L418.381 520.875L418.47 518.422L416.03 518.784L416.374 520.754ZM392.881 524.242L390.88 524.028L390.665 526.592L393.226 526.212L392.881 524.242ZM393.869 512.473L393.525 510.503L391.996 510.729L391.868 512.26L393.869 512.473ZM421.415 504.594L420.593 502.757L420.593 502.757L421.415 504.594ZM453.324 483.94L455.331 484.062L455.501 479.527L452.019 482.394L453.324 483.94ZM446.197 673.985L446.541 675.955L448.143 675.717L448.204 674.107L446.197 673.985ZM410.587 679.271L408.58 679.15L408.491 681.603L410.931 681.241L410.587 679.271ZM416.03 518.784L392.537 522.271L393.226 526.212L416.718 522.724L416.03 518.784ZM394.883 524.455L395.87 512.686L391.868 512.26L390.88 524.028L394.883 524.455ZM394.213 514.443C403.462 513.07 412.803 510.395 422.236 506.431L420.593 502.757C411.433 506.606 402.411 509.183 393.525 510.503L394.213 514.443ZM422.236 506.431C431.775 502.422 442.577 495.41 454.629 485.485L452.019 482.394C440.118 492.195 429.647 498.952 420.593 502.757L422.236 506.431ZM451.317 483.817L444.19 673.862L448.204 674.107L455.331 484.062L451.317 483.817ZM445.853 672.015L410.243 677.301L410.931 681.241L446.541 675.955L445.853 672.015ZM412.594 679.391L418.381 520.875L414.367 520.634L408.58 679.15L412.594 679.391Z" fill="white"/>
<path d="M412.317 336.166C397.81 338.319 386.137 336.852 377.298 331.763C368.459 326.675 363.036 318.384 361.027 306.892C359.22 296.549 360.738 287.817 365.583 280.697C370.399 273.413 377.588 269.062 387.15 267.642C397.206 266.149 403.79 269.467 406.902 277.595C400.286 279.42 395.276 282.69 391.872 287.406C388.604 291.934 387.53 297.399 388.649 303.802C389.653 309.548 392.173 313.806 396.209 316.576C400.245 319.346 405.148 320.302 410.918 319.446C420.48 318.026 427.564 312.595 432.172 303.152C436.78 293.709 437.922 282.339 435.598 269.04C433.618 257.712 429.707 249.365 423.865 244.001C417.993 238.472 410.771 236.343 402.199 237.616C393.461 238.913 383.308 244.21 371.74 253.507L368.138 251.768L370.868 155.606C389.871 154.974 403.905 153.986 412.973 152.64C427.975 150.413 441.916 145.985 454.796 139.357C455.757 142.92 456.395 145.604 456.711 147.41C458.203 155.948 457.1 163.186 453.402 169.125C449.869 175.039 443.156 178.731 433.265 180.199C429.473 180.762 424.868 181.024 419.449 180.987C414.03 180.949 408.844 180.792 403.891 180.517C399.626 180.308 395.293 180.193 390.891 180.173L388.79 226.216C398.616 219.535 408.393 215.473 418.119 214.029C431.638 212.023 443.075 215.041 452.43 223.085C461.921 230.94 468.03 242.666 470.756 258.263C473.08 271.561 472.164 283.741 468.008 294.801C464.016 305.836 457.165 315.023 447.453 322.36C437.878 329.508 426.166 334.11 412.317 336.166Z" fill="white"/>
<path d="M377.298 331.763L376.322 333.48L376.322 333.48L377.298 331.763ZM365.583 280.697L367.256 281.839L367.263 281.828L367.27 281.818L365.583 280.697ZM406.902 277.595L407.483 279.515L409.55 278.946L408.777 276.928L406.902 277.595ZM391.872 287.406L393.514 288.592L393.514 288.592L391.872 287.406ZM396.209 316.576L395.094 318.205L395.094 318.205L396.209 316.576ZM432.172 303.152L430.361 302.249L430.361 302.249L432.172 303.152ZM423.865 244.001L422.501 245.429L422.51 245.438L422.52 245.447L423.865 244.001ZM371.74 253.507L370.897 255.294L372.051 255.851L373.027 255.067L371.74 253.507ZM368.138 251.768L366.131 251.663L366.094 252.975L367.295 253.555L368.138 251.768ZM370.868 155.606L370.752 153.615L368.913 153.676L368.861 155.501L370.868 155.606ZM454.796 139.357L456.735 138.886L456.074 136.433L453.837 137.584L454.796 139.357ZM453.402 169.125L451.686 168.048L451.677 168.063L451.668 168.079L453.402 169.125ZM403.891 180.517L403.954 178.528L403.941 178.528L403.891 180.517ZM390.891 180.173L390.852 178.181L388.97 178.172L388.885 180.034L390.891 180.173ZM388.79 226.216L386.784 226.077L386.598 230.148L389.952 227.867L388.79 226.216ZM452.43 223.085L451.136 224.576L451.151 224.589L451.166 224.602L452.43 223.085ZM468.008 294.801L466.124 294.065L466.12 294.077L466.115 294.088L468.008 294.801ZM447.453 322.36L448.685 323.962L448.694 323.955L447.453 322.36ZM411.973 334.196C397.718 336.312 386.564 334.819 378.274 330.047L376.322 333.48C385.71 338.885 397.902 340.327 412.662 338.136L411.973 334.196ZM378.274 330.047C370.053 325.314 364.928 317.601 363.005 306.598L359.049 307.186C361.143 319.167 366.866 328.036 376.322 333.48L378.274 330.047ZM363.005 306.598C361.267 296.65 362.751 288.459 367.256 281.839L363.91 279.556C358.725 287.175 357.172 296.447 359.049 307.186L363.005 306.598ZM367.27 281.818C371.752 275.039 378.427 270.958 387.494 269.612L386.805 265.672C376.748 267.165 369.046 271.788 363.896 279.577L367.27 281.818ZM387.494 269.612C392.267 268.904 395.965 269.376 398.756 270.782C401.503 272.167 403.617 274.58 405.027 278.263L408.777 276.928C407.075 272.482 404.341 269.173 400.505 267.239C396.711 265.328 392.088 264.888 386.805 265.672L387.494 269.612ZM406.321 275.675C399.351 277.597 393.934 281.089 390.23 286.221L393.514 288.592C396.619 284.291 401.222 281.242 407.483 279.515L406.321 275.675ZM390.23 286.221C386.609 291.237 385.475 297.255 386.67 304.096L390.627 303.508C389.584 297.544 390.599 292.631 393.514 288.592L390.23 286.221ZM386.67 304.096C387.748 310.261 390.508 315.058 395.094 318.205L397.324 314.947C393.838 312.554 391.558 308.836 390.627 303.508L386.67 304.096ZM395.094 318.205C399.644 321.328 405.095 322.331 411.262 321.416L410.573 317.475C405.2 318.273 400.845 317.363 397.324 314.947L395.094 318.205ZM411.262 321.416C421.535 319.891 429.128 314.005 433.984 304.055L430.361 302.249C426 311.185 419.424 316.162 410.573 317.475L411.262 321.416ZM433.984 304.055C438.815 294.155 439.953 282.344 437.576 268.747L433.62 269.334C435.892 282.334 434.745 293.264 430.361 302.249L433.984 304.055ZM437.576 268.747C435.554 257.176 431.51 248.339 425.209 242.554L422.52 245.447C427.905 250.392 431.682 258.248 433.62 269.334L437.576 268.747ZM425.228 242.572C418.853 236.568 410.981 234.291 401.854 235.646L402.543 239.586C410.561 238.396 417.134 240.375 422.501 245.429L425.228 242.572ZM401.854 235.646C392.605 237.019 382.126 242.567 370.454 251.947L373.027 255.067C384.491 245.853 394.317 240.807 402.543 239.586L401.854 235.646ZM372.583 251.72L368.981 249.981L367.295 253.555L370.897 255.294L372.583 251.72ZM370.146 251.872L372.876 155.71L368.861 155.501L366.131 251.663L370.146 251.872ZM370.984 157.596C390 156.965 404.131 155.974 413.317 154.61L412.628 150.67C403.68 151.998 389.741 152.984 370.752 153.615L370.984 157.596ZM413.317 154.61C428.526 152.352 442.675 147.861 455.755 141.13L453.837 137.584C441.157 144.11 427.424 148.473 412.628 150.67L413.317 154.61ZM452.857 139.828C453.815 143.378 454.433 145.991 454.733 147.704L458.689 147.117C458.357 145.218 457.699 142.462 456.735 138.886L452.857 139.828ZM454.733 147.704C456.161 155.875 455.078 162.601 451.686 168.048L455.117 170.201C459.121 163.771 460.245 156.02 458.689 147.117L454.733 147.704ZM451.668 168.079C448.545 173.307 442.49 176.808 432.921 178.229L433.609 182.169C443.823 180.653 451.193 176.772 455.136 170.171L451.668 168.079ZM432.921 178.229C429.263 178.772 424.767 179.032 419.414 178.995L419.483 182.979C424.968 183.017 429.683 182.752 433.609 182.169L432.921 178.229ZM419.414 178.995C414.025 178.957 408.872 178.802 403.954 178.528L403.827 182.506C408.816 182.783 414.035 182.941 419.483 182.979L419.414 178.995ZM403.941 178.528C399.645 178.317 395.282 178.201 390.852 178.181L390.931 182.165C395.303 182.185 399.606 182.299 403.84 182.507L403.941 178.528ZM388.885 180.034L386.784 226.077L390.796 226.354L392.897 180.311L388.885 180.034ZM389.952 227.867C399.587 221.317 409.089 217.391 418.464 216L417.775 212.059C407.696 213.555 397.645 217.754 387.627 224.564L389.952 227.867ZM418.464 216C431.478 214.068 442.293 216.973 451.136 224.576L453.724 221.593C443.856 213.109 431.798 209.978 417.775 212.059L418.464 216ZM451.166 224.602C460.178 232.06 466.109 243.289 468.777 258.557L472.734 257.969C469.951 242.043 463.665 229.82 453.694 221.568L451.166 224.602ZM468.777 258.557C471.049 271.554 470.142 283.372 466.124 294.065L469.891 295.536C474.185 284.109 475.111 271.569 472.734 257.969L468.777 258.557ZM466.115 294.088C462.256 304.759 455.637 313.644 446.212 320.764L448.694 323.955C458.693 316.402 465.776 306.914 469.9 295.514L466.115 294.088ZM446.221 320.758C436.943 327.684 425.55 332.18 411.973 334.196L412.662 338.136C426.782 336.04 438.812 331.332 448.685 323.962L446.221 320.758Z" fill="white"/>
<path d="M290.667 714.326C272.533 717.018 258.712 713.427 249.206 703.553C239.7 693.679 233.283 679.219 229.955 660.174C225.996 637.518 225.868 615.977 229.571 595.551C233.274 575.126 240.469 558.225 251.155 544.848C261.977 531.282 275.548 523.288 291.869 520.865C307.696 518.516 320.484 522.007 330.234 531.34C340.148 540.648 346.712 554.497 349.925 572.885C353.11 591.108 353.65 610.651 351.545 631.513C349.412 652.211 343.397 670.537 333.5 686.492C323.739 702.258 309.461 711.536 290.667 714.326ZM290.654 695.379C298.403 694.228 304.706 687.229 309.564 674.38C314.423 661.531 317.291 645.525 318.171 626.361C319.215 607.173 318.087 588.138 314.788 569.258C312.98 558.914 310.252 550.561 306.602 544.196C302.924 537.668 298.777 534.746 294.161 535.432C286.578 536.557 280.206 543.651 275.047 556.713C269.888 569.775 266.621 585.925 265.247 605.162C263.873 624.399 264.75 642.966 267.877 660.861C272.181 685.488 279.773 696.994 290.654 695.379Z" fill="white"/>
<path d="M249.206 703.553L247.77 704.91L249.206 703.553ZM229.571 595.551L227.594 595.153L227.594 595.153L229.571 595.551ZM251.155 544.848L252.74 546.108L252.741 546.107L251.155 544.848ZM330.234 531.34L328.858 532.757L328.865 532.764L328.872 532.771L330.234 531.34ZM351.545 631.513L353.543 631.763L353.543 631.759L351.545 631.513ZM333.5 686.492L331.782 685.418L331.781 685.42L333.5 686.492ZM309.564 674.38L307.682 673.641L307.682 673.641L309.564 674.38ZM318.171 626.361L316.166 626.206L316.165 626.214L316.165 626.222L318.171 626.361ZM306.602 544.196L304.855 545.136L304.859 545.142L304.863 545.149L306.602 544.196ZM275.047 556.713L273.175 555.948L275.047 556.713ZM265.247 605.162L267.25 605.351L267.25 605.351L265.247 605.162ZM290.323 712.356C272.588 714.989 259.532 711.429 250.642 702.195L247.77 704.91C257.893 715.425 272.478 719.047 291.011 716.296L290.323 712.356ZM250.642 702.195C241.518 692.717 235.221 678.69 231.933 659.881L227.977 660.468C231.346 679.748 237.883 694.64 247.77 704.91L250.642 702.195ZM231.933 659.881C228.01 637.431 227.89 616.126 231.548 595.95L227.594 595.153C223.846 615.827 223.981 637.604 227.977 660.468L231.933 659.881ZM231.548 595.95C235.205 575.776 242.291 559.188 252.74 546.108L249.569 543.588C238.647 557.261 231.343 574.476 227.594 595.153L231.548 595.95ZM252.741 546.107C263.278 532.898 276.419 525.18 292.214 522.835L291.525 518.895C274.677 521.396 260.675 529.666 249.568 543.589L252.741 546.107ZM292.214 522.835C307.558 520.558 319.663 523.956 328.858 532.757L331.61 529.923C321.305 520.059 307.834 516.474 291.525 518.895L292.214 522.835ZM328.872 532.771C338.357 541.676 344.78 555.058 347.947 573.178L351.904 572.591C348.644 553.935 341.939 539.621 331.595 529.909L328.872 532.771ZM347.947 573.178C351.097 591.2 351.636 610.56 349.547 631.267L353.543 631.759C355.664 610.743 355.124 591.017 351.904 572.591L347.947 573.178ZM349.548 631.263C347.441 651.697 341.51 669.737 331.782 685.418L335.217 687.565C345.283 671.337 351.382 652.724 353.543 631.763L349.548 631.263ZM331.781 685.42C322.325 700.694 308.552 709.65 290.323 712.356L291.011 716.296C310.37 713.422 325.152 703.822 335.218 687.564L331.781 685.42ZM290.998 697.349C299.865 696.033 306.533 688.114 311.447 675.119L307.682 673.641C302.879 686.344 296.94 692.424 290.31 693.408L290.998 697.349ZM311.447 675.119C316.399 662.02 319.291 645.796 320.177 626.5L316.165 626.222C315.291 645.254 312.446 661.043 307.682 673.641L311.447 675.119ZM320.176 626.517C321.228 607.18 320.092 587.994 316.766 568.964L312.809 569.551C316.083 588.282 317.202 607.166 316.166 626.206L320.176 626.517ZM316.766 568.964C314.934 558.483 312.149 549.882 308.342 543.244L304.863 545.149C308.355 551.239 311.026 559.346 312.809 569.551L316.766 568.964ZM308.35 543.257C304.539 536.494 299.724 532.585 293.817 533.462L294.506 537.402C297.831 536.908 301.31 538.842 304.855 545.136L308.35 543.257ZM293.817 533.462C285.11 534.754 278.376 542.78 273.175 555.948L276.919 557.479C282.037 544.523 288.045 538.361 294.506 537.402L293.817 533.462ZM273.175 555.948C267.922 569.247 264.627 585.605 263.244 604.973L267.25 605.351C268.615 586.245 271.853 570.303 276.919 557.479L273.175 555.948ZM263.244 604.973C261.859 624.361 262.742 643.089 265.899 661.155L269.856 660.568C266.758 642.842 265.887 624.438 267.25 605.351L263.244 604.973ZM265.899 661.155C268.066 673.552 271.097 682.916 275.127 689.023C277.156 692.098 279.495 694.435 282.19 695.878C284.913 697.336 287.876 697.812 290.998 697.349L290.31 693.408C287.992 693.753 285.925 693.397 284.03 692.382C282.107 691.352 280.239 689.577 278.471 686.898C274.909 681.5 271.993 672.797 269.856 660.568L265.899 661.155Z" fill="white"/>
<path d="M309.328 387.887C306.031 388.377 302.497 388.48 298.727 388.198C295.121 387.891 290.634 387.378 285.265 386.659C278.85 385.758 273.592 385.191 269.492 384.958C265.392 384.724 261.198 384.926 256.912 385.562C247.68 386.932 239.029 390.659 230.958 396.742L229.969 396.889C228.291 393.095 227.123 389.31 226.463 385.534C225.258 378.639 225.812 371.65 228.127 364.569C230.577 357.3 233.87 350.494 238.005 344.154C242.14 337.813 247.899 329.631 255.281 319.608C263.1 309.183 269.335 300.341 273.986 293.082C278.608 285.658 282.223 277.794 284.832 269.49C287.411 261.023 287.955 252.52 286.463 243.983C284.827 234.624 281.97 227.469 277.891 222.516C273.977 217.539 268.887 215.515 262.622 216.445C256.852 217.301 252.498 219.969 249.56 224.448C246.593 228.762 245.597 233.711 246.573 239.293C247.548 244.875 249.495 249.723 252.413 253.838C255.467 257.764 258.897 260.455 262.703 261.911L262.875 262.896C260.532 265.939 257.841 268.444 254.802 270.411C251.763 272.378 248.677 273.594 245.545 274.059C240.434 274.818 235.746 273.156 231.48 269.073C227.38 264.965 224.641 258.971 223.264 251.09C222.059 244.195 222.875 237.252 225.713 230.262C228.715 223.247 233.814 217.1 241.01 211.821C248.206 206.542 257.162 203.107 267.878 201.516C282.221 199.387 294.464 201.696 304.608 208.444C314.887 215.003 321.247 225.26 323.685 239.215C325.235 248.081 324.361 256.632 321.065 264.87C317.934 273.083 313.587 280.634 308.026 287.523C302.464 294.412 294.892 302.864 285.31 312.876C275.864 322.7 268.442 331.045 263.046 337.91C257.649 344.775 253.794 351.748 251.479 358.829C256.031 356.806 261.026 355.39 266.467 354.583C270.423 353.995 274.602 353.712 279.003 353.732C283.405 353.753 287.573 353.892 291.508 354.15C292.196 354.216 294.425 354.391 298.196 354.673C302.102 354.767 305.539 354.594 308.507 354.153C312.958 353.492 316.922 351.977 320.398 349.609C323.845 347.076 327.228 343.205 330.546 337.996L331.374 338.378C334.579 344.135 336.54 349.065 337.257 353.17C338.262 358.916 337.599 364.32 335.27 369.382C333.077 374.255 329.655 378.385 325.004 381.77C320.323 384.992 315.098 387.031 309.328 387.887Z" fill="white"/>
<path d="M298.727 388.198L298.603 390.182L298.614 390.183L298.624 390.184L298.727 388.198ZM285.265 386.659L285.031 388.631L285.044 388.633L285.265 386.659ZM269.492 384.958L269.558 382.969L269.558 382.969L269.492 384.958ZM230.958 396.742L231.303 398.712L231.8 398.638L232.198 398.338L230.958 396.742ZM229.969 396.889L228.133 397.651L228.769 399.088L230.313 398.859L229.969 396.889ZM228.127 364.569L226.221 363.897L226.218 363.905L226.215 363.914L228.127 364.569ZM238.005 344.154L239.699 345.264L239.699 345.264L238.005 344.154ZM255.281 319.608L253.659 318.394L253.654 318.401L253.649 318.408L255.281 319.608ZM273.986 293.082L275.688 294.179L275.695 294.168L275.701 294.158L273.986 293.082ZM284.832 269.49L286.75 270.125L286.753 270.117L286.755 270.109L284.832 269.49ZM277.891 222.516L276.319 223.717L276.333 223.736L276.348 223.754L277.891 222.516ZM249.56 224.448L251.227 225.597L251.239 225.58L251.251 225.563L249.56 224.448ZM252.413 253.838L250.78 254.957L250.806 254.994L250.834 255.03L252.413 253.838ZM262.703 261.911L264.682 261.617L264.482 260.474L263.386 260.055L262.703 261.911ZM262.875 262.896L264.482 264.13L265.002 263.454L264.854 262.603L262.875 262.896ZM254.802 270.411L253.676 268.735L253.676 268.735L254.802 270.411ZM231.48 269.073L230.071 270.457L230.087 270.473L230.104 270.49L231.48 269.073ZM225.713 230.262L223.861 229.446L223.854 229.462L223.847 229.479L225.713 230.262ZM241.01 211.821L242.23 213.433L242.23 213.433L241.01 211.821ZM304.608 208.444L303.518 210.09L303.534 210.101L303.551 210.111L304.608 208.444ZM321.065 264.87L319.196 264.096L319.19 264.111L319.185 264.126L321.065 264.87ZM308.026 287.523L309.605 288.791L309.605 288.791L308.026 287.523ZM285.31 312.876L286.779 314.269L286.782 314.266L285.31 312.876ZM263.046 337.91L261.451 336.661L261.451 336.661L263.046 337.91ZM251.479 358.829L249.568 358.173L248.15 362.511L252.337 360.65L251.479 358.829ZM279.003 353.732L279.043 355.724L279.043 355.724L279.003 353.732ZM291.508 354.15L291.654 352.167L291.623 352.164L291.592 352.162L291.508 354.15ZM298.196 354.673L298.093 356.659L298.145 356.663L298.196 356.664L298.196 354.673ZM320.398 349.609L321.562 351.259L321.591 351.24L321.618 351.219L320.398 349.609ZM330.546 337.996L331.357 336.194L329.762 335.457L328.841 336.903L330.546 337.996ZM331.374 338.378L333.127 337.448L332.799 336.86L332.185 336.576L331.374 338.378ZM335.27 369.382L333.44 368.519L333.437 368.526L333.433 368.533L335.27 369.382ZM325.004 381.77L326.175 383.416L326.196 383.401L326.217 383.386L325.004 381.77ZM308.984 385.917C305.851 386.382 302.469 386.484 298.829 386.211L298.624 390.184C302.525 390.476 306.21 390.371 309.672 389.857L308.984 385.917ZM298.85 386.213C295.289 385.91 290.837 385.401 285.486 384.685L285.044 388.633C290.431 389.354 294.954 389.871 298.603 390.182L298.85 386.213ZM285.499 384.687C279.055 383.782 273.736 383.207 269.558 382.969L269.425 386.946C273.447 387.175 278.644 387.734 285.031 388.631L285.499 384.687ZM269.558 382.969C265.313 382.727 260.982 382.936 256.568 383.592L257.256 387.532C261.415 386.915 265.471 386.721 269.425 386.946L269.558 382.969ZM256.568 383.592C246.979 385.015 238.025 388.885 229.719 395.145L232.198 398.338C240.032 392.433 248.381 388.85 257.256 387.532L256.568 383.592ZM230.614 394.772L229.625 394.918L230.313 398.859L231.303 398.712L230.614 394.772ZM231.805 396.126C230.189 392.471 229.071 388.844 228.441 385.241L224.484 385.828C225.174 389.777 226.394 393.719 228.133 397.651L231.805 396.126ZM228.441 385.241C227.296 378.688 227.816 372.025 230.038 365.225L226.215 363.914C223.809 371.276 223.219 378.589 224.484 385.828L228.441 385.241ZM230.033 365.242C232.432 358.125 235.654 351.467 239.699 345.264L236.311 343.043C232.086 349.522 228.723 356.474 226.221 363.897L230.033 365.242ZM239.699 345.264C243.806 338.967 249.54 330.818 256.912 320.808L253.649 318.408C246.258 328.444 240.475 336.659 236.311 343.043L239.699 345.264ZM256.902 320.822C264.737 310.376 271.002 301.493 275.688 294.179L272.283 291.984C267.667 299.189 261.462 307.99 253.659 318.394L256.902 320.822ZM275.701 294.158C280.409 286.597 284.093 278.585 286.75 270.125L282.913 268.856C280.354 277.003 276.807 284.719 272.27 292.005L275.701 294.158ZM286.755 270.109C289.421 261.357 289.988 252.542 288.441 243.689L284.484 244.276C285.921 252.498 285.401 260.688 282.908 268.872L286.755 270.109ZM288.441 243.689C286.773 234.145 283.823 226.608 279.434 221.278L276.348 223.754C280.117 228.33 282.882 235.104 284.484 244.276L288.441 243.689ZM279.463 221.315C277.316 218.585 274.78 216.586 271.846 215.419C268.912 214.252 265.703 213.966 262.278 214.475L262.967 218.415C265.806 217.994 268.274 218.254 270.43 219.112C272.585 219.969 274.552 221.47 276.319 223.717L279.463 221.315ZM262.278 214.475C256 215.407 251.135 218.354 247.869 223.333L251.251 225.563C253.861 221.584 257.705 219.196 262.967 218.415L262.278 214.475ZM247.892 223.298C244.616 228.062 243.537 233.535 244.594 239.586L248.551 238.999C247.657 233.886 248.569 229.463 251.227 225.597L247.892 223.298ZM244.594 239.586C245.614 245.424 247.664 250.563 250.78 254.957L254.046 252.718C251.326 248.883 249.482 244.325 248.551 238.999L244.594 239.586ZM250.834 255.03C254.069 259.189 257.79 262.149 262.021 263.767L263.386 260.055C260.004 258.761 256.864 256.339 253.991 252.645L250.834 255.03ZM260.725 262.205L260.897 263.19L264.854 262.603L264.682 261.617L260.725 262.205ZM261.269 261.663C259.05 264.543 256.519 266.895 253.676 268.735L255.927 272.087C259.162 269.993 262.013 267.335 264.482 264.13L261.269 261.663ZM253.676 268.735C250.836 270.573 248.013 271.672 245.2 272.089L245.889 276.029C249.341 275.517 252.689 274.183 255.927 272.087L253.676 268.735ZM245.2 272.089C240.799 272.742 236.73 271.363 232.857 267.656L230.104 270.49C234.762 274.948 240.069 276.893 245.889 276.029L245.2 272.089ZM232.89 267.689C229.185 263.977 226.575 258.424 225.242 250.797L221.285 251.384C222.707 259.518 225.575 265.953 230.071 270.457L232.89 267.689ZM225.242 250.797C224.106 244.299 224.865 237.727 227.578 231.044L223.847 229.479C220.885 236.777 220.011 244.091 221.285 251.384L225.242 250.797ZM227.564 231.078C230.409 224.43 235.265 218.542 242.23 213.433L239.791 210.209C232.364 215.658 227.021 222.064 223.861 229.446L227.564 231.078ZM242.23 213.433C249.122 208.376 257.761 205.039 268.223 203.486L267.534 199.546C256.563 201.174 247.291 204.707 239.791 210.209L242.23 213.433ZM268.223 203.486C282.176 201.415 293.882 203.68 303.518 210.09L305.698 206.798C295.046 199.712 282.267 197.359 267.534 199.546L268.223 203.486ZM303.551 210.111C313.256 216.304 319.348 226.007 321.707 239.509L325.664 238.921C323.146 224.512 316.519 213.702 305.665 206.776L303.551 210.111ZM321.707 239.509C323.194 248.014 322.357 256.196 319.196 264.096L322.934 265.643C326.365 257.068 327.276 248.147 325.664 238.921L321.707 239.509ZM319.185 264.126C316.126 272.147 311.882 279.522 306.446 286.255L309.605 288.791C315.293 281.746 319.741 274.018 322.946 265.614L319.185 264.126ZM306.446 286.255C300.932 293.086 293.401 301.494 283.838 311.487L286.782 314.266C296.384 304.233 303.996 295.739 309.605 288.791L306.446 286.255ZM283.841 311.483C274.372 321.331 266.902 329.727 261.451 336.661L264.641 339.158C269.982 332.363 277.356 324.07 286.779 314.269L283.841 311.483ZM261.451 336.661C255.939 343.673 251.963 350.843 249.568 358.173L253.391 359.485C255.624 352.652 259.359 345.876 264.641 339.158L261.451 336.661ZM252.337 360.65C256.71 358.706 261.531 357.337 266.811 356.553L266.123 352.613C260.521 353.444 255.351 354.905 250.621 357.008L252.337 360.65ZM266.811 356.553C270.658 355.982 274.734 355.704 279.043 355.724L278.964 351.74C274.47 351.72 270.189 352.009 266.123 352.613L266.811 356.553ZM279.043 355.724C283.408 355.744 287.535 355.882 291.424 356.137L291.592 352.162C287.611 351.901 283.402 351.761 278.964 351.74L279.043 355.724ZM291.362 356.132C292.078 356.201 294.335 356.378 298.093 356.659L298.299 352.687C294.516 352.403 292.315 352.231 291.654 352.167L291.362 356.132ZM298.196 356.664C302.186 356.76 305.742 356.585 308.851 356.123L308.163 352.183C305.336 352.602 302.019 352.774 298.196 352.682L298.196 356.664ZM308.851 356.123C313.58 355.421 317.827 353.804 321.562 351.259L319.234 347.958C316.016 350.151 312.336 351.563 308.163 352.183L308.851 356.123ZM321.618 351.219C325.324 348.497 328.858 344.417 332.251 339.089L328.841 336.903C325.599 341.993 322.367 345.654 319.178 347.998L321.618 351.219ZM329.735 339.798L330.563 340.18L332.185 336.576L331.357 336.194L329.735 339.798ZM329.622 339.308C332.772 344.966 334.616 349.671 335.279 353.463L339.236 352.876C338.464 348.46 336.387 343.304 333.127 337.448L329.622 339.308ZM335.279 353.463C336.217 358.829 335.598 363.829 333.44 368.519L337.101 370.245C339.601 364.811 340.306 359.002 339.236 352.876L335.279 353.463ZM333.433 368.533C331.388 373.078 328.191 376.951 323.79 380.154L326.217 383.386C331.119 379.818 334.767 375.432 337.107 370.23L333.433 368.533ZM323.832 380.125C319.402 383.174 314.46 385.104 308.984 385.917L309.672 389.857C315.736 388.957 321.245 386.809 326.175 383.416L323.832 380.125Z" fill="white"/>
</svg>
